<svg width="23" height="20" viewBox="0 0 23 20" fill="none" xmlns="http://www.w3.org/2000/svg">
<path d="M11.1242 2.81635L11.5 3.24456L11.8758 2.81635C13.2372 1.26512 14.7744 0.5 16.4737 0.5C19.8019 0.5 22.5 3.19807 22.5 6.52632C22.5 8.24234 22.1639 9.4879 21.1213 10.8799C20.0498 12.3104 18.229 13.9009 15.1998 16.2569L12.4209 18.4182C11.8792 18.8395 11.1208 18.8395 10.5791 18.4182L7.8002 16.2569C4.77104 13.9009 2.95015 12.3104 1.87871 10.8799C0.836091 9.4879 0.5 8.24234 0.5 6.52632C0.5 3.19807 3.19807 0.5 6.52632 0.5C8.22563 0.5 9.76283 1.26512 11.1242 2.81635Z" fill="black" stroke="#F5F5F5"/>
</svg>
