<svg width="23" height="20" viewBox="0 0 23 20" fill="none" xmlns="http://www.w3.org/2000/svg">
<path d="M11.3121 2.65145L11.5 2.86555L11.6879 2.65145C13.0865 1.05774 14.6883 0.25 16.4737 0.25C19.94 0.25 22.75 3.06 22.75 6.52632C22.75 8.28752 22.4013 9.58794 21.3214 11.0298C20.227 12.4909 18.3799 14.1002 15.3533 16.4542L12.5744 18.6156C11.9425 19.1071 11.0575 19.1071 10.4256 18.6156L7.64672 16.4542C4.62007 14.1002 2.77297 12.4909 1.67862 11.0298C0.598668 9.58794 0.25 8.28752 0.25 6.52632C0.25 3.06 3.06 0.25 6.52632 0.25C8.31173 0.25 9.91346 1.05774 11.3121 2.65145Z" fill="black" stroke="#F5F5F5" stroke-width="0.5"/>
</svg>
