<svg width="57" height="56" viewBox="0 0 57 56" fill="none" xmlns="http://www.w3.org/2000/svg">
<path fill-rule="evenodd" clip-rule="evenodd" d="M23.0002 31.9415C23.0002 27.5628 26.5106 23.9975 30.8654 23.9975C33.0459 23.9975 34.9184 24.9484 36.4919 26.4425C38.0545 24.9441 39.9328 23.9975 42.1349 23.9975C46.4897 23.9975 50.0002 27.5628 50.0002 31.9415C50.0002 34.2763 49.3877 36.0927 47.9034 37.9585C46.5077 39.713 44.3249 41.5246 41.2863 43.9392L41.2817 43.9429L38.1546 46.4077C37.1618 47.1903 35.7657 47.1903 34.7729 46.4077L31.6458 43.9429L31.6412 43.9392C28.5998 41.5224 26.4334 39.7094 25.054 37.9502C23.587 36.0793 23.0002 34.2642 23.0002 31.9415ZM30.8654 26.9972C28.1989 26.9972 26.0002 29.1878 26.0002 31.9415C26.0002 33.6228 26.3799 34.7795 27.4149 36.0995C28.5371 37.5306 30.4072 39.127 33.5056 41.5892L33.5077 41.5909L36.4638 43.9209L39.4198 41.5909L39.422 41.5891C42.5232 39.1248 44.4134 37.527 45.5556 36.0912C46.6097 34.7662 47.0002 33.6108 47.0002 31.9415C47.0002 29.1878 44.8014 26.9972 42.1349 26.9972C40.5694 26.9972 39.0873 27.8154 37.6753 29.5954C37.3925 29.952 36.963 30.1608 36.5078 30.1632C36.0526 30.1655 35.6209 29.961 35.3345 29.6073C33.8799 27.8115 32.3939 26.9972 30.8654 26.9972Z" fill="#FF3347"/>
<path fill-rule="evenodd" clip-rule="evenodd" d="M17.2517 6.53645L21.8209 5.31228C23.6609 4.81931 25.1302 4.42566 26.3428 4.20467C27.5865 3.97802 28.6893 3.90614 29.782 4.13838C31.5378 4.51154 33.1304 5.4309 34.3315 6.7647C35.079 7.5948 35.5681 8.58562 35.9937 9.77591C36.4086 10.9364 36.8023 12.4055 37.2953 14.2453L38.8605 20.0861C39.0749 20.8862 38.6001 21.7086 37.7999 21.923C36.9997 22.1373 36.1772 21.6625 35.9627 20.8624L34.4144 15.0846C33.9007 13.1676 33.5376 11.8172 33.1688 10.7856C32.8059 9.7706 32.479 9.19047 32.1021 8.77184C31.3249 7.90879 30.2944 7.31391 29.1583 7.07246C28.6072 6.95533 27.9413 6.96241 26.8807 7.15568C25.8028 7.35211 24.4517 7.7129 22.5344 8.22657L18.0911 9.41699C16.1738 9.93066 14.8233 10.2937 13.7916 10.6625C12.7764 11.0253 12.1962 11.3521 11.7775 11.729C10.9144 12.5061 10.3194 13.5365 10.0779 14.6724C9.96078 15.2235 9.96785 15.8893 10.1612 16.9497C10.3576 18.0275 10.7184 19.3785 11.2322 21.2955L16.2196 39.9066C16.7334 41.8236 17.0964 43.174 17.4653 44.2056C17.8282 45.2206 18.155 45.8007 18.532 46.2194C19.3091 47.0824 20.3396 47.6773 21.4757 47.9188C22.0268 48.0359 22.6927 48.0288 23.7533 47.8355C24.8312 47.6391 26.1823 47.2783 28.0996 46.7646L29.0767 46.5029C29.8769 46.2885 30.6994 46.7633 30.9138 47.5634C31.1282 48.3635 30.6534 49.1859 29.8532 49.4003L28.8131 49.6789C26.9731 50.1719 25.5038 50.5656 24.2912 50.7865C23.0475 51.0132 21.9447 51.0851 20.852 50.8528C19.0962 50.4797 17.5036 49.5603 16.3025 48.2265C15.555 47.3964 15.0659 46.4056 14.6403 45.2153C14.2254 44.0548 13.8317 42.5857 13.3387 40.7459L8.31752 22.0089C7.82448 20.1691 7.43078 18.7001 7.20977 17.4876C6.9831 16.244 6.9112 15.1414 7.14347 14.0488C7.51668 12.2932 8.43616 10.7008 9.77012 9.49988C10.6003 8.75245 11.5913 8.2634 12.7817 7.8379C13.9424 7.42303 15.4117 7.0294 17.2517 6.53645Z" fill="#FF3347"/>
</svg>
