<svg width="28" height="28" viewBox="0 0 28 28" fill="none" xmlns="http://www.w3.org/2000/svg">
<g clip-path="url(#clip0_32_29609)">
<path d="M21.4605 11.9981C23.9609 11.9981 26 13.9875 26 16.457C26 18.7787 25.087 19.9562 21.5741 22.6464L20.1103 23.7582C19.2112 24.4405 17.9868 24.4784 17.0516 23.8719L16.8897 23.7582L15.3803 22.6115L14.8094 22.1686C11.8046 19.8077 11 18.6365 11 16.457C11 13.9875 13.0391 11.9981 15.5395 11.9981C16.4689 11.9981 17.324 12.2903 18.0901 12.847L18.2968 13.0054L18.4988 13.1777L18.7159 12.9951C19.3832 12.4608 20.1221 12.1334 20.92 12.032L21.1881 12.0066L21.4605 11.9981ZM21.5229 13.9964L21.299 14.0034L21.1127 14.0237C20.7813 14.0749 20.4675 14.2007 20.1756 14.3982L20.0032 14.5253L18.8135 15.5254C18.6264 15.6827 18.3529 15.6817 18.167 15.5229L17.0411 14.5616C16.5636 14.1765 16.0769 13.9974 15.5395 13.9974C14.1302 13.9974 13 15.1053 13 16.457C13 17.8645 13.4474 18.5679 16.0723 20.6188L16.5904 21.0196L18.099 22.1657C18.3064 22.3231 18.5834 22.3428 18.8082 22.2247L18.901 22.1657L20.593 20.8789C23.5243 18.6207 24 17.9073 24 16.457C24 15.1594 22.9584 14.0864 21.6835 14.0018L21.5229 13.9964ZM8 17.9961C8.55228 17.9961 9 18.4437 9 18.9958C9 19.5479 8.55228 19.9955 8 19.9955H4C3.44772 19.9955 3 19.5479 3 18.9958C3 18.4437 3.44772 17.9961 4 17.9961H8ZM8 11.9981C8.55228 11.9981 9 12.4456 9 12.9977C9 13.5499 8.55228 13.9974 8 13.9974H4C3.44772 13.9974 3 13.5499 3 12.9977C3 12.4456 3.44772 11.9981 4 11.9981H8ZM22 6C22.5523 6 23 6.44757 23 6.99968C23 7.55178 22.5523 7.99936 22 7.99936H4C3.44772 7.99936 3 7.55178 3 6.99968C3 6.44757 3.44772 6 4 6H22Z" fill="#FF3347"/>
</g>
<defs>
<clipPath id="clip0_32_29609">
<rect width="28" height="28" fill="white"/>
</clipPath>
</defs>
</svg>
