<svg width="48" height="48" viewBox="0 0 48 48" fill="none" xmlns="http://www.w3.org/2000/svg">
<g filter="url(#filter0_d_43_4246)">
<mask id="path-1-outside-1_43_4246" maskUnits="userSpaceOnUse" x="10" y="11" width="28" height="28" fill="black">
<rect fill="white" x="10" y="11" width="28" height="28"/>
<path fill-rule="evenodd" clip-rule="evenodd" d="M35.1598 29.3526C37.2523 24.3082 37.9498 16.3814 35.1598 13.4989C33.3202 11.5982 31.4805 11.8908 28.8409 12.3106C27.4774 12.5275 25.9005 12.7783 24 12.7783C22.0995 12.7783 20.5226 12.5275 19.1591 12.3106C16.5195 11.8908 14.6798 11.5982 12.8402 13.4989C10.0502 16.3814 10.7477 24.3082 12.8402 29.3526C14.9326 34.3969 19.1176 38 24 38C28.8824 38 33.0674 34.3969 35.1598 29.3526ZM32.8371 28.3372C31.0253 32.747 27.6099 35.5 24 35.5C20.3901 35.5 16.9747 32.747 15.1629 28.3372C13.1661 23.4772 12.9729 16.825 14.5547 15.175C15.3466 14.3489 15.6693 14.3246 19.1056 14.8659C20.9915 15.1629 22.3655 15.3033 24 15.3033C25.6345 15.3033 27.0085 15.1629 28.8944 14.8659C32.3307 14.3246 32.6534 14.3489 33.4453 15.175C35.0271 16.825 34.8339 23.4772 32.8371 28.3372ZM24 31C27.2 31 28.48 27.9697 27.84 27.2121C27.5348 26.8509 27.2297 27.0064 26.7163 27.268C26.1531 27.555 25.3393 27.9697 24 27.9697C22.6607 27.9697 21.8469 27.555 21.2837 27.268C20.7703 27.0064 20.4652 26.8509 20.16 27.2121C19.52 27.9697 20.8 31 24 31ZM19.9924 23.1629C18.892 23.0666 18.0585 22.3196 18.1307 21.4943C18.2029 20.669 19.1535 20.078 20.2539 20.1743C21.3542 20.2706 22.1877 21.0176 22.1155 21.8429C22.0433 22.6682 21.0928 23.2592 19.9924 23.1629ZM26.1307 21.8429C26.2029 22.6682 27.1535 23.2592 28.2539 23.1629C29.3542 23.0666 30.1877 22.3196 30.1155 21.4943C30.0433 20.669 29.0928 20.078 27.9924 20.1743C26.892 20.2706 26.0585 21.0176 26.1307 21.8429Z"/>
</mask>
<path fill-rule="evenodd" clip-rule="evenodd" d="M35.1598 29.3526C37.2523 24.3082 37.9498 16.3814 35.1598 13.4989C33.3202 11.5982 31.4805 11.8908 28.8409 12.3106C27.4774 12.5275 25.9005 12.7783 24 12.7783C22.0995 12.7783 20.5226 12.5275 19.1591 12.3106C16.5195 11.8908 14.6798 11.5982 12.8402 13.4989C10.0502 16.3814 10.7477 24.3082 12.8402 29.3526C14.9326 34.3969 19.1176 38 24 38C28.8824 38 33.0674 34.3969 35.1598 29.3526ZM32.8371 28.3372C31.0253 32.747 27.6099 35.5 24 35.5C20.3901 35.5 16.9747 32.747 15.1629 28.3372C13.1661 23.4772 12.9729 16.825 14.5547 15.175C15.3466 14.3489 15.6693 14.3246 19.1056 14.8659C20.9915 15.1629 22.3655 15.3033 24 15.3033C25.6345 15.3033 27.0085 15.1629 28.8944 14.8659C32.3307 14.3246 32.6534 14.3489 33.4453 15.175C35.0271 16.825 34.8339 23.4772 32.8371 28.3372ZM24 31C27.2 31 28.48 27.9697 27.84 27.2121C27.5348 26.8509 27.2297 27.0064 26.7163 27.268C26.1531 27.555 25.3393 27.9697 24 27.9697C22.6607 27.9697 21.8469 27.555 21.2837 27.268C20.7703 27.0064 20.4652 26.8509 20.16 27.2121C19.52 27.9697 20.8 31 24 31ZM19.9924 23.1629C18.892 23.0666 18.0585 22.3196 18.1307 21.4943C18.2029 20.669 19.1535 20.078 20.2539 20.1743C21.3542 20.2706 22.1877 21.0176 22.1155 21.8429C22.0433 22.6682 21.0928 23.2592 19.9924 23.1629ZM26.1307 21.8429C26.2029 22.6682 27.1535 23.2592 28.2539 23.1629C29.3542 23.0666 30.1877 22.3196 30.1155 21.4943C30.0433 20.669 29.0928 20.078 27.9924 20.1743C26.892 20.2706 26.0585 21.0176 26.1307 21.8429Z" fill="white"/>
<path d="M35.1598 13.4989L35.5191 13.1512L35.1598 13.4989ZM35.1598 29.3526L34.698 29.161L35.1598 29.3526ZM28.8409 12.3106L28.7623 11.8168L28.8409 12.3106ZM19.1591 12.3106L19.0806 12.8044L19.1591 12.3106ZM12.8402 13.4989L13.1994 13.8466L12.8402 13.4989ZM32.8371 28.3372L32.3746 28.1471L32.8371 28.3372ZM15.1629 28.3372L15.6254 28.1471L15.1629 28.3372ZM14.5547 15.175L14.9156 15.521L14.5547 15.175ZM19.1056 14.8659L19.1834 14.372L19.1056 14.8659ZM28.8944 14.8659L28.9722 15.3598L28.8944 14.8659ZM33.4453 15.175L33.8063 14.829L33.4453 15.175ZM27.84 27.2121L28.2219 26.8895L28.2219 26.8895L27.84 27.2121ZM26.7163 27.268L26.9433 27.7135L26.7163 27.268ZM21.2837 27.268L21.0567 27.7135H21.0567L21.2837 27.268ZM20.16 27.2121L19.7781 26.8895V26.8895L20.16 27.2121ZM22.1155 21.8429L22.6136 21.8865V21.8865L22.1155 21.8429ZM26.1307 21.8429L25.6326 21.8865V21.8865L26.1307 21.8429ZM27.9924 20.1743L28.036 20.6724L27.9924 20.1743ZM35.5191 13.1512C36.3008 13.9588 36.8111 15.0888 37.1173 16.3661C37.4246 17.6478 37.535 19.1128 37.4905 20.6297C37.4016 23.6608 36.6921 26.9637 35.6217 29.5441L34.698 29.161C35.7201 26.697 36.4055 23.5144 36.491 20.6004C36.5337 19.1447 36.4261 17.7722 36.1449 16.5993C35.8626 15.422 35.4138 14.4802 34.8006 13.8466L35.5191 13.1512ZM28.7623 11.8168C30.0628 11.61 31.2547 11.4168 32.3549 11.5375C33.4928 11.6625 34.5198 12.1187 35.5191 13.1512L34.8006 13.8466C33.9602 12.9784 33.1475 12.6306 32.2458 12.5316C31.3062 12.4284 30.2585 12.5914 28.9194 12.8044L28.7623 11.8168ZM24 12.2783C25.8569 12.2783 27.3989 12.0337 28.7623 11.8168L28.9194 12.8044C27.556 13.0213 25.9442 13.2783 24 13.2783V12.2783ZM19.2377 11.8168C20.6011 12.0337 22.1431 12.2783 24 12.2783V13.2783C22.0558 13.2783 20.444 13.0213 19.0806 12.8044L19.2377 11.8168ZM12.4809 13.1512C13.4802 12.1187 14.5072 11.6625 15.6451 11.5375C16.7453 11.4168 17.9372 11.61 19.2377 11.8168L19.0806 12.8044C17.7415 12.5914 16.6938 12.4284 15.7542 12.5316C14.8525 12.6306 14.0398 12.9784 13.1994 13.8466L12.4809 13.1512ZM12.3783 29.5441C11.3079 26.9637 10.5984 23.6608 10.5095 20.6297C10.465 19.1128 10.5754 17.6478 10.8827 16.3661C11.1889 15.0888 11.6992 13.9588 12.4809 13.1512L13.1994 13.8466C12.5862 14.4802 12.1374 15.422 11.8551 16.5993C11.5739 17.7722 11.4663 19.1447 11.509 20.6004C11.5945 23.5144 12.2799 26.697 13.302 29.161L12.3783 29.5441ZM24 38.5C18.8517 38.5 14.5205 34.7084 12.3783 29.5441L13.302 29.161C15.3447 34.0854 19.3834 37.5 24 37.5V38.5ZM35.6217 29.5441C33.4795 34.7084 29.1483 38.5 24 38.5V37.5C28.6166 37.5 32.6553 34.0854 34.698 29.161L35.6217 29.5441ZM24 35C27.34 35 30.6107 32.4406 32.3746 28.1471L33.2996 28.5272C31.44 33.0535 27.8799 36 24 36V35ZM15.6254 28.1471C17.3893 32.4406 20.66 35 24 35V36C20.1201 36 16.56 33.0535 14.7004 28.5272L15.6254 28.1471ZM14.9156 15.521C14.6235 15.8257 14.3612 16.4313 14.1932 17.3356C14.0287 18.2205 13.9674 19.3194 14.0164 20.5321C14.1146 22.9591 14.6522 25.7785 15.6254 28.1471L14.7004 28.5272C13.6768 26.0358 13.1194 23.0991 13.0172 20.5725C12.9661 19.3085 13.0282 18.1312 13.21 17.1529C13.3882 16.1939 13.695 15.3493 14.1937 14.829L14.9156 15.521ZM19.0278 15.3598C17.2844 15.0852 16.4118 14.9696 15.8726 15.0065C15.6252 15.0234 15.479 15.0718 15.362 15.1378C15.2343 15.2097 15.1078 15.3206 14.9156 15.521L14.1937 14.829C14.3975 14.6164 14.6083 14.4145 14.8713 14.2664C15.1448 14.1124 15.4426 14.0336 15.8044 14.0088C16.4836 13.9624 17.4905 14.1053 19.1834 14.372L19.0278 15.3598ZM24 15.8033C22.331 15.8033 20.9296 15.6593 19.0278 15.3598L19.1834 14.372C21.0535 14.6665 22.3999 14.8033 24 14.8033V15.8033ZM28.9722 15.3598C27.0704 15.6593 25.669 15.8033 24 15.8033V14.8033C25.6001 14.8033 26.9465 14.6665 28.8166 14.372L28.9722 15.3598ZM33.0844 15.521C32.8922 15.3206 32.7657 15.2097 32.638 15.1378C32.521 15.0718 32.3748 15.0234 32.1274 15.0065C31.5882 14.9696 30.7156 15.0852 28.9722 15.3598L28.8166 14.372C30.5095 14.1053 31.5164 13.9624 32.1956 14.0088C32.5574 14.0336 32.8552 14.1124 33.1287 14.2664C33.3917 14.4145 33.6025 14.6164 33.8063 14.829L33.0844 15.521ZM32.3746 28.1471C33.3478 25.7785 33.8854 22.9591 33.9836 20.5321C34.0326 19.3194 33.9713 18.2205 33.8068 17.3356C33.6388 16.4313 33.3765 15.8257 33.0844 15.521L33.8063 14.829C34.305 15.3493 34.6118 16.1939 34.79 17.1529C34.9718 18.1312 35.0339 19.3085 34.9828 20.5725C34.8806 23.0991 34.3232 26.0358 33.2996 28.5272L32.3746 28.1471ZM28.2219 26.8895C28.5316 27.256 28.5403 27.7824 28.4498 28.2239C28.3532 28.6955 28.1187 29.2125 27.7598 29.6904C27.0358 30.6545 25.7739 31.5 24 31.5V30.5C25.4261 30.5 26.4042 29.8303 26.9602 29.0899C27.2413 28.7156 27.4068 28.3329 27.4702 28.0233C27.5397 27.6835 27.4684 27.5471 27.4581 27.5348L28.2219 26.8895ZM26.4893 26.8225C26.7161 26.7069 27.0046 26.5531 27.283 26.5119C27.4426 26.4883 27.6179 26.4965 27.7951 26.5681C27.9689 26.6382 28.1081 26.7546 28.2219 26.8895L27.4581 27.5348C27.4194 27.489 27.4059 27.4894 27.4206 27.4953C27.4387 27.5026 27.4484 27.4983 27.4294 27.5011C27.4027 27.5051 27.3529 27.5185 27.2643 27.5569C27.1759 27.5952 27.0756 27.6461 26.9433 27.7135L26.4893 26.8225ZM24 27.4697C25.2191 27.4697 25.9469 27.0989 26.4893 26.8225L26.9433 27.7135C26.3593 28.0111 25.4595 28.4697 24 28.4697V27.4697ZM21.5107 26.8225C22.0531 27.0989 22.7809 27.4697 24 27.4697V28.4697C22.5405 28.4697 21.6407 28.0111 21.0567 27.7135L21.5107 26.8225ZM19.7781 26.8895C19.8919 26.7546 20.0311 26.6382 20.2049 26.5681C20.3821 26.4965 20.5574 26.4883 20.717 26.5119C20.9954 26.5531 21.2839 26.7069 21.5107 26.8225L21.0567 27.7135C20.9244 27.6461 20.8241 27.5952 20.7357 27.5569C20.6471 27.5185 20.5973 27.5051 20.5706 27.5011C20.5516 27.4983 20.5613 27.5026 20.5794 27.4953C20.5941 27.4894 20.5806 27.489 20.5419 27.5348L19.7781 26.8895ZM24 31.5C22.2261 31.5 20.9642 30.6545 20.2402 29.6904C19.8813 29.2125 19.6468 28.6955 19.5502 28.2239C19.4597 27.7824 19.4684 27.256 19.7781 26.8895L20.5419 27.5348C20.5316 27.5471 20.4603 27.6835 20.5298 28.0233C20.5932 28.3329 20.7587 28.7156 21.0398 29.0899C21.5958 29.8303 22.5739 30.5 24 30.5V31.5ZM18.6288 21.5379C18.6095 21.7586 18.7068 22.0067 18.9556 22.2296C19.2044 22.4527 19.5831 22.6252 20.036 22.6648L19.9488 23.661C19.3013 23.6043 18.713 23.3552 18.2881 22.9743C17.8631 22.5933 17.5797 22.0553 17.6326 21.4507L18.6288 21.5379ZM20.2103 20.6724C19.7574 20.6328 19.3546 20.7369 19.0707 20.9133C18.7871 21.0897 18.6481 21.3172 18.6288 21.5379L17.6326 21.4507C17.6855 20.8461 18.058 20.3655 18.5427 20.0641C19.0273 19.7628 19.6499 19.6196 20.2974 19.6762L20.2103 20.6724ZM21.6174 21.7993C21.6367 21.5786 21.5394 21.3305 21.2907 21.1076C21.0418 20.8845 20.6631 20.712 20.2103 20.6724L20.2974 19.6762C20.945 19.7329 21.5332 19.9821 21.9581 20.3629C22.3832 20.7439 22.6665 21.2819 22.6136 21.8865L21.6174 21.7993ZM20.036 22.6648C20.4888 22.7044 20.8917 22.6003 21.1755 22.4239C21.4592 22.2475 21.5981 22.02 21.6174 21.7993L22.6136 21.8865C22.5607 22.4911 22.1883 22.9717 21.7035 23.2731C21.2189 23.5744 20.5963 23.7176 19.9488 23.661L20.036 22.6648ZM28.2974 23.661C27.6499 23.7176 27.0273 23.5744 26.5427 23.2731C26.058 22.9717 25.6855 22.4911 25.6326 21.8865L26.6288 21.7993C26.6481 22.02 26.7871 22.2475 27.0707 22.4239C27.3546 22.6003 27.7574 22.7044 28.2103 22.6648L28.2974 23.661ZM30.6136 21.4507C30.6665 22.0553 30.3832 22.5933 29.9581 22.9743C29.5332 23.3552 28.945 23.6043 28.2974 23.661L28.2103 22.6648C28.6631 22.6252 29.0418 22.4527 29.2907 22.2296C29.5394 22.0067 29.6367 21.7586 29.6174 21.5379L30.6136 21.4507ZM27.9488 19.6762C28.5963 19.6196 29.2189 19.7628 29.7035 20.0641C30.1883 20.3655 30.5607 20.8461 30.6136 21.4507L29.6174 21.5379C29.5981 21.3172 29.4592 21.0897 29.1755 20.9133C28.8917 20.7369 28.4888 20.6328 28.036 20.6724L27.9488 19.6762ZM25.6326 21.8865C25.5797 21.2819 25.8631 20.7439 26.2881 20.3629C26.713 19.9821 27.3013 19.7329 27.9488 19.6762L28.036 20.6724C27.5831 20.712 27.2044 20.8845 26.9556 21.1076C26.7068 21.3305 26.6095 21.5786 26.6288 21.7993L25.6326 21.8865Z" fill="black" fill-opacity="0.12" mask="url(#path-1-outside-1_43_4246)"/>
</g>
<defs>
<filter id="filter0_d_43_4246" x="5.5" y="6.50024" width="37" height="36.9998" filterUnits="userSpaceOnUse" color-interpolation-filters="sRGB">
<feFlood flood-opacity="0" result="BackgroundImageFix"/>
<feColorMatrix in="SourceAlpha" type="matrix" values="0 0 0 0 0 0 0 0 0 0 0 0 0 0 0 0 0 0 127 0" result="hardAlpha"/>
<feOffset/>
<feGaussianBlur stdDeviation="2.5"/>
<feColorMatrix type="matrix" values="0 0 0 0 0 0 0 0 0 0 0 0 0 0 0 0 0 0 0.16 0"/>
<feBlend mode="normal" in2="BackgroundImageFix" result="effect1_dropShadow_43_4246"/>
<feBlend mode="normal" in="SourceGraphic" in2="effect1_dropShadow_43_4246" result="shape"/>
</filter>
</defs>
</svg>
