<svg width="123" height="71" viewBox="0 0 123 71" fill="none" xmlns="http://www.w3.org/2000/svg">
<rect width="123" height="71" fill="white"/>
<path d="M17.4515 33.5703V32.9091H21.3915V33.5703H19.8031V38H19.0374V33.5703H17.4515ZM22.0848 39.4318C21.9738 39.4318 21.8727 39.4227 21.7815 39.4045C21.6904 39.3879 21.6224 39.3697 21.5777 39.3498L21.7567 38.7408C21.8926 38.7772 22.0135 38.793 22.1196 38.788C22.2257 38.783 22.3193 38.7433 22.4005 38.6687C22.4833 38.5941 22.5563 38.4723 22.6192 38.3033L22.7112 38.0497L21.3142 34.1818H22.1096L23.0766 37.1449H23.1164L24.0834 34.1818H24.8813L23.3078 38.5096C23.2349 38.7085 23.1421 38.8767 23.0294 39.0142C22.9167 39.1534 22.7825 39.2578 22.6267 39.3274C22.4709 39.397 22.2903 39.4318 22.0848 39.4318ZM25.216 34.8232V34.1818H28.4376V34.8232H27.1922V38H26.4664V34.8232H25.216ZM33.722 32.7599L34.0302 33.2298C33.9159 33.3342 33.7858 33.4087 33.6399 33.4535C33.4958 33.4966 33.3292 33.5239 33.1403 33.5355C32.9514 33.5455 32.7351 33.5546 32.4915 33.5629C32.2164 33.5711 31.9902 33.6308 31.8129 33.7418C31.6356 33.8512 31.4988 34.0136 31.4027 34.229C31.3083 34.4428 31.2469 34.7113 31.2188 35.0344H31.266C31.3903 34.7975 31.5626 34.6201 31.7831 34.5025C32.0051 34.3848 32.2545 34.326 32.5313 34.326C32.8395 34.326 33.1138 34.3964 33.3541 34.5373C33.5944 34.6781 33.7833 34.8845 33.9208 35.1562C34.06 35.4264 34.1296 35.757 34.1296 36.1481C34.1296 36.5442 34.0567 36.8864 33.9109 37.1747C33.7667 37.4631 33.5629 37.686 33.2994 37.8434C33.0375 37.9992 32.7285 38.0771 32.3722 38.0771C32.0159 38.0771 31.7052 37.9967 31.44 37.8359C31.1765 37.6735 30.9719 37.4332 30.826 37.1151C30.6818 36.7969 30.6098 36.4041 30.6098 35.9368V35.5589C30.6098 34.6856 30.7655 34.0285 31.0771 33.5877C31.3886 33.1469 31.8543 32.9207 32.4741 32.9091C32.6746 32.9041 32.8536 32.9033 33.011 32.9066C33.1685 32.9083 33.306 32.9008 33.4237 32.8842C33.543 32.866 33.6424 32.8246 33.722 32.7599ZM32.3747 37.4531C32.5818 37.4531 32.76 37.4009 32.9091 37.2965C33.0599 37.1905 33.1759 37.0405 33.2571 36.8466C33.3383 36.6527 33.3789 36.424 33.3789 36.1605C33.3789 35.902 33.3383 35.6824 33.2571 35.5018C33.1759 35.3211 33.0599 35.1836 32.9091 35.0891C32.7583 34.993 32.5777 34.945 32.3672 34.945C32.2114 34.945 32.0722 34.9723 31.9496 35.027C31.827 35.08 31.7217 35.1587 31.6339 35.2631C31.5477 35.3675 31.4806 35.4951 31.4326 35.646C31.3862 35.7951 31.3613 35.9666 31.358 36.1605C31.358 36.5549 31.4483 36.869 31.6289 37.1026C31.8112 37.3363 32.0598 37.4531 32.3747 37.4531ZM35.2797 39.4318C35.1687 39.4318 35.0676 39.4227 34.9764 39.4045C34.8853 39.3879 34.8174 39.3697 34.7726 39.3498L34.9516 38.7408C35.0875 38.7772 35.2085 38.793 35.3145 38.788C35.4206 38.783 35.5142 38.7433 35.5954 38.6687C35.6783 38.5941 35.7512 38.4723 35.8142 38.3033L35.9061 38.0497L34.5091 34.1818H35.3046L36.2715 37.1449H36.3113L37.2783 34.1818H38.0762L36.5027 38.5096C36.4298 38.7085 36.337 38.8767 36.2243 39.0142C36.1116 39.1534 35.9774 39.2578 35.8216 39.3274C35.6658 39.397 35.4852 39.4318 35.2797 39.4318ZM37.9374 39.1012V37.3562H38.2481C38.3277 37.2833 38.3948 37.1963 38.4495 37.0952C38.5058 36.9941 38.5531 36.8739 38.5912 36.7347C38.631 36.5955 38.6641 36.4331 38.6906 36.2475C38.7171 36.0603 38.7403 35.8465 38.7602 35.6062L38.8795 34.1818H41.4747V37.3562H42.0614V39.1012H41.3355V38H38.6732V39.1012H37.9374ZM39.0436 37.3562H40.7489V34.8182H39.5457L39.4662 35.6062C39.4281 36.0072 39.38 36.3552 39.322 36.6502C39.264 36.9435 39.1712 37.1789 39.0436 37.3562ZM44.2834 38.0771C43.9072 38.0771 43.5833 37.9967 43.3115 37.8359C43.0414 37.6735 42.8325 37.4457 42.6851 37.1523C42.5392 36.8574 42.4663 36.5118 42.4663 36.1158C42.4663 35.7247 42.5392 35.38 42.6851 35.0817C42.8325 34.7834 43.038 34.5505 43.3015 34.3832C43.5667 34.2158 43.8766 34.1321 44.2312 34.1321C44.4467 34.1321 44.6555 34.1677 44.8576 34.239C45.0598 34.3103 45.2413 34.4221 45.402 34.5746C45.5628 34.727 45.6896 34.9251 45.7824 35.1687C45.8752 35.4106 45.9216 35.7048 45.9216 36.0511V36.3146H42.8864V35.7578H45.1932C45.1932 35.5623 45.1535 35.3891 45.0739 35.2383C44.9944 35.0858 44.8825 34.9657 44.7383 34.8778C44.5958 34.79 44.4284 34.7461 44.2362 34.7461C44.0274 34.7461 43.8451 34.7975 43.6893 34.9002C43.5352 35.0013 43.4159 35.1339 43.3314 35.2979C43.2485 35.4603 43.2071 35.6368 43.2071 35.8274V36.2624C43.2071 36.5176 43.2518 36.7347 43.3413 36.9137C43.4325 37.0927 43.5592 37.2294 43.7216 37.3239C43.884 37.4167 44.0738 37.4631 44.2909 37.4631C44.4317 37.4631 44.5602 37.4432 44.6762 37.4034C44.7922 37.362 44.8924 37.3007 44.977 37.2195C45.0615 37.1383 45.1261 37.038 45.1709 36.9187L45.8743 37.0455C45.818 37.2526 45.7169 37.4341 45.5711 37.5898C45.4269 37.744 45.2454 37.8641 45.0267 37.9503C44.8096 38.0348 44.5618 38.0771 44.2834 38.0771ZM46.2594 34.8232V34.1818H49.481V34.8232H48.2356V38H47.5098V34.8232H46.2594ZM51.8197 38V34.1818H53.4031C53.834 34.1818 54.1754 34.2738 54.4273 34.4577C54.6792 34.64 54.8051 34.8878 54.8051 35.201C54.8051 35.4247 54.7338 35.602 54.5913 35.733C54.4488 35.8639 54.2599 35.9517 54.0246 35.9964C54.1953 36.0163 54.3519 36.0677 54.4944 36.1506C54.6369 36.2318 54.7512 36.3411 54.8374 36.4787C54.9253 36.6162 54.9692 36.7803 54.9692 36.9709C54.9692 37.1731 54.917 37.352 54.8126 37.5078C54.7082 37.6619 54.5565 37.7829 54.3577 37.8707C54.1605 37.9569 53.9226 38 53.6442 38H51.8197ZM52.5182 37.3786H53.6442C53.8282 37.3786 53.9724 37.3346 54.0768 37.2468C54.1812 37.159 54.2334 37.0397 54.2334 36.8888C54.2334 36.7115 54.1812 36.5723 54.0768 36.4712C53.9724 36.3685 53.8282 36.3171 53.6442 36.3171H52.5182V37.3786ZM52.5182 35.7727H53.4106C53.5498 35.7727 53.6691 35.7528 53.7685 35.7131C53.8696 35.6733 53.9467 35.617 53.9997 35.544C54.0544 35.4695 54.0817 35.3816 54.0817 35.2805C54.0817 35.133 54.0212 35.0179 53.9003 34.935C53.7793 34.8522 53.6136 34.8107 53.4031 34.8107H52.5182V35.7727ZM56.7457 38.0845C56.5037 38.0845 56.285 38.0398 56.0894 37.9503C55.8939 37.8591 55.7389 37.7274 55.6246 37.555C55.5119 37.3827 55.4555 37.1714 55.4555 36.9212C55.4555 36.7057 55.497 36.5284 55.5798 36.3892C55.6627 36.25 55.7745 36.1398 55.9154 36.0586C56.0563 35.9774 56.2137 35.9161 56.3877 35.8746C56.5617 35.8332 56.739 35.8017 56.9197 35.7802C57.1484 35.7537 57.334 35.7321 57.4765 35.7156C57.619 35.6973 57.7226 35.6683 57.7872 35.6286C57.8518 35.5888 57.8842 35.5241 57.8842 35.4347V35.4173C57.8842 35.2002 57.8228 35.032 57.7002 34.9126C57.5792 34.7933 57.3986 34.7337 57.1583 34.7337C56.9081 34.7337 56.7109 34.7892 56.5667 34.9002C56.4242 35.0096 56.3256 35.1314 56.2709 35.2656L55.5724 35.1065C55.6552 34.8745 55.7762 34.6873 55.9353 34.5447C56.096 34.4006 56.2808 34.2962 56.4896 34.2315C56.6984 34.1652 56.918 34.1321 57.1484 34.1321C57.3008 34.1321 57.4624 34.1503 57.6331 34.1868C57.8054 34.2216 57.9662 34.2862 58.1153 34.3807C58.2661 34.4751 58.3896 34.6102 58.4857 34.7859C58.5818 34.9599 58.6299 35.1861 58.6299 35.4645V38H57.904V37.478H57.8742C57.8261 37.5741 57.7541 37.6686 57.6579 37.7614C57.5618 37.8542 57.4384 37.9312 57.2876 37.9925C57.1368 38.0539 56.9561 38.0845 56.7457 38.0845ZM56.9072 37.4879C57.1127 37.4879 57.2884 37.4473 57.4342 37.3661C57.5817 37.2849 57.6936 37.1789 57.7698 37.0479C57.8477 36.9154 57.8866 36.7737 57.8866 36.6229V36.1307C57.8601 36.1572 57.8087 36.1821 57.7325 36.2053C57.6579 36.2268 57.5726 36.2459 57.4765 36.2624C57.3804 36.2773 57.2867 36.2914 57.1956 36.3047C57.1044 36.3163 57.0282 36.3262 56.9669 36.3345C56.8227 36.3527 56.691 36.3834 56.5717 36.4265C56.454 36.4696 56.3595 36.5317 56.2883 36.6129C56.2187 36.6925 56.1839 36.7985 56.1839 36.9311C56.1839 37.1151 56.2518 37.2543 56.3877 37.3487C56.5236 37.4415 56.6968 37.4879 56.9072 37.4879ZM59.4699 34.1818H60.1982V37.3562H61.5182V34.1818H62.2465V37.3562H63.5665V34.1818H64.2948V38H59.4699V34.1818ZM66.2484 38.0845C66.0064 38.0845 65.7877 38.0398 65.5921 37.9503C65.3966 37.8591 65.2416 37.7274 65.1273 37.555C65.0146 37.3827 64.9583 37.1714 64.9583 36.9212C64.9583 36.7057 64.9997 36.5284 65.0826 36.3892C65.1654 36.25 65.2773 36.1398 65.4181 36.0586C65.559 35.9774 65.7164 35.9161 65.8904 35.8746C66.0644 35.8332 66.2418 35.8017 66.4224 35.7802C66.6511 35.7537 66.8367 35.7321 66.9792 35.7156C67.1217 35.6973 67.2253 35.6683 67.2899 35.6286C67.3546 35.5888 67.3869 35.5241 67.3869 35.4347V35.4173C67.3869 35.2002 67.3256 35.032 67.2029 34.9126C67.082 34.7933 66.9013 34.7337 66.661 34.7337C66.4108 34.7337 66.2136 34.7892 66.0694 34.9002C65.9269 35.0096 65.8283 35.1314 65.7736 35.2656L65.0751 35.1065C65.158 34.8745 65.2789 34.6873 65.438 34.5447C65.5988 34.4006 65.7835 34.2962 65.9924 34.2315C66.2012 34.1652 66.4207 34.1321 66.6511 34.1321C66.8036 34.1321 66.9651 34.1503 67.1358 34.1868C67.3082 34.2216 67.4689 34.2862 67.6181 34.3807C67.7689 34.4751 67.8923 34.6102 67.9884 34.7859C68.0846 34.9599 68.1326 35.1861 68.1326 35.4645V38H67.4068V37.478H67.3769C67.3289 37.5741 67.2568 37.6686 67.1607 37.7614C67.0646 37.8542 66.9411 37.9312 66.7903 37.9925C66.6395 38.0539 66.4589 38.0845 66.2484 38.0845ZM66.41 37.4879C66.6155 37.4879 66.7911 37.4473 66.937 37.3661C67.0844 37.2849 67.1963 37.1789 67.2725 37.0479C67.3504 36.9154 67.3894 36.7737 67.3894 36.6229V36.1307C67.3629 36.1572 67.3115 36.1821 67.2353 36.2053C67.1607 36.2268 67.0753 36.2459 66.9792 36.2624C66.8831 36.2773 66.7895 36.2914 66.6983 36.3047C66.6072 36.3163 66.5309 36.3262 66.4696 36.3345C66.3255 36.3527 66.1937 36.3834 66.0744 36.4265C65.9567 36.4696 65.8623 36.5317 65.791 36.6129C65.7214 36.6925 65.6866 36.7985 65.6866 36.9311C65.6866 37.1151 65.7545 37.2543 65.8904 37.3487C66.0263 37.4415 66.1995 37.4879 66.41 37.4879ZM70.6751 38V34.1818H72.2586C72.6895 34.1818 73.0308 34.2738 73.2827 34.4577C73.5346 34.64 73.6606 34.8878 73.6606 35.201C73.6606 35.4247 73.5893 35.602 73.4468 35.733C73.3043 35.8639 73.1154 35.9517 72.88 35.9964C73.0507 36.0163 73.2073 36.0677 73.3498 36.1506C73.4924 36.2318 73.6067 36.3411 73.6929 36.4787C73.7807 36.6162 73.8246 36.7803 73.8246 36.9709C73.8246 37.1731 73.7724 37.352 73.668 37.5078C73.5636 37.6619 73.412 37.7829 73.2131 37.8707C73.0159 37.9569 72.7781 38 72.4997 38H70.6751ZM71.3736 37.3786H72.4997C72.6837 37.3786 72.8278 37.3346 72.9322 37.2468C73.0366 37.159 73.0888 37.0397 73.0888 36.8888C73.0888 36.7115 73.0366 36.5723 72.9322 36.4712C72.8278 36.3685 72.6837 36.3171 72.4997 36.3171H71.3736V37.3786ZM71.3736 35.7727H72.266C72.4052 35.7727 72.5246 35.7528 72.624 35.7131C72.7251 35.6733 72.8021 35.617 72.8552 35.544C72.9099 35.4695 72.9372 35.3816 72.9372 35.2805C72.9372 35.133 72.8767 35.0179 72.7557 34.935C72.6348 34.8522 72.469 34.8107 72.2586 34.8107H71.3736V35.7727ZM75.6011 38.0845C75.3592 38.0845 75.1404 38.0398 74.9449 37.9503C74.7493 37.8591 74.5944 37.7274 74.48 37.555C74.3673 37.3827 74.311 37.1714 74.311 36.9212C74.311 36.7057 74.3524 36.5284 74.4353 36.3892C74.5181 36.25 74.63 36.1398 74.7709 36.0586C74.9117 35.9774 75.0692 35.9161 75.2432 35.8746C75.4172 35.8332 75.5945 35.8017 75.7751 35.7802C76.0038 35.7537 76.1894 35.7321 76.3319 35.7156C76.4745 35.6973 76.578 35.6683 76.6427 35.6286C76.7073 35.5888 76.7396 35.5241 76.7396 35.4347V35.4173C76.7396 35.2002 76.6783 35.032 76.5557 34.9126C76.4347 34.7933 76.2541 34.7337 76.0138 34.7337C75.7635 34.7337 75.5663 34.7892 75.4221 34.9002C75.2796 35.0096 75.181 35.1314 75.1263 35.2656L74.4278 35.1065C74.5107 34.8745 74.6317 34.6873 74.7908 34.5447C74.9515 34.4006 75.1363 34.2962 75.3451 34.2315C75.5539 34.1652 75.7735 34.1321 76.0038 34.1321C76.1563 34.1321 76.3179 34.1503 76.4886 34.1868C76.6609 34.2216 76.8217 34.2862 76.9708 34.3807C77.1216 34.4751 77.2451 34.6102 77.3412 34.7859C77.4373 34.9599 77.4854 35.1861 77.4854 35.4645V38H76.7595V37.478H76.7297C76.6816 37.5741 76.6095 37.6686 76.5134 37.7614C76.4173 37.8542 76.2938 37.9312 76.143 37.9925C75.9922 38.0539 75.8116 38.0845 75.6011 38.0845ZM75.7627 37.4879C75.9682 37.4879 76.1439 37.4473 76.2897 37.3661C76.4372 37.2849 76.549 37.1789 76.6253 37.0479C76.7032 36.9154 76.7421 36.7737 76.7421 36.6229V36.1307C76.7156 36.1572 76.6642 36.1821 76.588 36.2053C76.5134 36.2268 76.4281 36.2459 76.3319 36.2624C76.2358 36.2773 76.1422 36.2914 76.0511 36.3047C75.9599 36.3163 75.8837 36.3262 75.8224 36.3345C75.6782 36.3527 75.5464 36.3834 75.4271 36.4265C75.3095 36.4696 75.215 36.5317 75.1437 36.6129C75.0741 36.6925 75.0393 36.7985 75.0393 36.9311C75.0393 37.1151 75.1073 37.2543 75.2432 37.3487C75.3791 37.4415 75.5522 37.4879 75.7627 37.4879ZM78.0245 38L78.0221 37.3562H78.1588C78.2648 37.3562 78.3535 37.3338 78.4248 37.2891C78.4977 37.2427 78.5573 37.1648 78.6037 37.0554C78.6501 36.946 78.6858 36.7952 78.7106 36.603C78.7355 36.4091 78.7537 36.1655 78.7653 35.8722L78.8324 34.1818H81.4972V38H80.7689V34.8232H79.521L79.4613 36.1207C79.4464 36.4356 79.4141 36.7107 79.3644 36.946C79.3163 37.1813 79.2459 37.3777 79.1531 37.5352C79.0603 37.6909 78.941 37.8078 78.7951 37.8857C78.6493 37.9619 78.472 38 78.2632 38H78.0245ZM83.984 38.0771C83.6078 38.0771 83.2839 37.9967 83.0121 37.8359C82.7419 37.6735 82.5331 37.4457 82.3857 37.1523C82.2398 36.8574 82.1669 36.5118 82.1669 36.1158C82.1669 35.7247 82.2398 35.38 82.3857 35.0817C82.5331 34.7834 82.7386 34.5505 83.0021 34.3832C83.2673 34.2158 83.5772 34.1321 83.9318 34.1321C84.1473 34.1321 84.3561 34.1677 84.5582 34.239C84.7604 34.3103 84.9419 34.4221 85.1026 34.5746C85.2634 34.727 85.3901 34.9251 85.483 35.1687C85.5758 35.4106 85.6222 35.7048 85.6222 36.0511V36.3146H82.587V35.7578H84.8938C84.8938 35.5623 84.854 35.3891 84.7745 35.2383C84.695 35.0858 84.5831 34.9657 84.4389 34.8778C84.2964 34.79 84.129 34.7461 83.9368 34.7461C83.728 34.7461 83.5457 34.7975 83.3899 34.9002C83.2358 35.0013 83.1165 35.1339 83.032 35.2979C82.9491 35.4603 82.9077 35.6368 82.9077 35.8274V36.2624C82.9077 36.5176 82.9524 36.7347 83.0419 36.9137C83.133 37.0927 83.2598 37.2294 83.4222 37.3239C83.5846 37.4167 83.7744 37.4631 83.9915 37.4631C84.1323 37.4631 84.2608 37.4432 84.3768 37.4034C84.4928 37.362 84.593 37.3007 84.6776 37.2195C84.7621 37.1383 84.8267 37.038 84.8714 36.9187L85.5749 37.0455C85.5186 37.2526 85.4175 37.4341 85.2717 37.5898C85.1275 37.744 84.946 37.8641 84.7273 37.9503C84.5102 38.0348 84.2624 38.0771 83.984 38.0771ZM88.8845 35.7702V36.4141H86.8163V35.7702H88.8845ZM87.0251 34.1818V38H86.2968V34.1818H87.0251ZM89.4041 34.1818V38H88.6782V34.1818H89.4041ZM89.7748 34.8232V34.1818H92.9964V34.8232H91.751V38H91.0252V34.8232H89.7748ZM94.3609 36.9585L96.0438 34.1818H96.8442V38H96.1159V35.2209L94.4404 38H93.6325V34.1818H94.3609V36.9585ZM100.281 35.7702V36.4141H98.213V35.7702H100.281ZM98.4218 34.1818V38H97.6935V34.1818H98.4218ZM100.801 34.1818V38H100.075V34.1818H100.801ZM101.645 38V34.1818H102.388V35.7827H102.746L104.007 34.1818H104.926L103.447 36.0387L104.944 38H104.021L102.871 36.4737H102.388V38H101.645ZM106.482 38.0845C106.24 38.0845 106.021 38.0398 105.826 37.9503C105.63 37.8591 105.475 37.7274 105.361 37.555C105.248 37.3827 105.192 37.1714 105.192 36.9212C105.192 36.7057 105.233 36.5284 105.316 36.3892C105.399 36.25 105.511 36.1398 105.652 36.0586C105.793 35.9774 105.95 35.9161 106.124 35.8746C106.298 35.8332 106.476 35.8017 106.656 35.7802C106.885 35.7537 107.07 35.7321 107.213 35.7156C107.356 35.6973 107.459 35.6683 107.524 35.6286C107.588 35.5888 107.621 35.5241 107.621 35.4347V35.4173C107.621 35.2002 107.559 35.032 107.437 34.9126C107.316 34.7933 107.135 34.7337 106.895 34.7337C106.645 34.7337 106.447 34.7892 106.303 34.9002C106.161 35.0096 106.062 35.1314 106.007 35.2656L105.309 35.1065C105.392 34.8745 105.513 34.6873 105.672 34.5447C105.833 34.4006 106.017 34.2962 106.226 34.2315C106.435 34.1652 106.655 34.1321 106.885 34.1321C107.037 34.1321 107.199 34.1503 107.37 34.1868C107.542 34.2216 107.703 34.2862 107.852 34.3807C108.003 34.4751 108.126 34.6102 108.222 34.7859C108.318 34.9599 108.366 35.1861 108.366 35.4645V38H107.641V37.478H107.611C107.563 37.5741 107.491 37.6686 107.394 37.7614C107.298 37.8542 107.175 37.9312 107.024 37.9925C106.873 38.0539 106.693 38.0845 106.482 38.0845ZM106.644 37.4879C106.849 37.4879 107.025 37.4473 107.171 37.3661C107.318 37.2849 107.43 37.1789 107.506 37.0479C107.584 36.9154 107.623 36.7737 107.623 36.6229V36.1307C107.597 36.1572 107.545 36.1821 107.469 36.2053C107.394 36.2268 107.309 36.2459 107.213 36.2624C107.117 36.2773 107.023 36.2914 106.932 36.3047C106.841 36.3163 106.765 36.3262 106.703 36.3345C106.559 36.3527 106.427 36.3834 106.308 36.4265C106.191 36.4696 106.096 36.5317 106.025 36.6129C105.955 36.6925 105.92 36.7985 105.92 36.9311C105.92 37.1151 105.988 37.2543 106.124 37.3487C106.26 37.4415 106.433 37.4879 106.644 37.4879Z" fill="black"/>
</svg>
