<svg width="130" height="71" viewBox="0 0 130 71" fill="none" xmlns="http://www.w3.org/2000/svg">
<rect width="130" height="71" fill="white"/>
<path d="M18.4515 33.5703V32.9091H22.3915V33.5703H20.8031V38H20.0374V33.5703H18.4515ZM23.0848 39.4318C22.9738 39.4318 22.8727 39.4227 22.7815 39.4045C22.6904 39.3879 22.6224 39.3697 22.5777 39.3498L22.7567 38.7408C22.8926 38.7772 23.0135 38.793 23.1196 38.788C23.2257 38.783 23.3193 38.7433 23.4005 38.6687C23.4833 38.5941 23.5563 38.4723 23.6192 38.3033L23.7112 38.0497L22.3142 34.1818H23.1096L24.0766 37.1449H24.1164L25.0834 34.1818H25.8813L24.3078 38.5096C24.2349 38.7085 24.1421 38.8767 24.0294 39.0142C23.9167 39.1534 23.7825 39.2578 23.6267 39.3274C23.4709 39.397 23.2903 39.4318 23.0848 39.4318ZM26.216 34.8232V34.1818H29.4376V34.8232H28.1922V38H27.4664V34.8232H26.216ZM34.722 32.7599L35.0302 33.2298C34.9159 33.3342 34.7858 33.4087 34.6399 33.4535C34.4958 33.4966 34.3292 33.5239 34.1403 33.5355C33.9514 33.5455 33.7351 33.5546 33.4915 33.5629C33.2164 33.5711 32.9902 33.6308 32.8129 33.7418C32.6356 33.8512 32.4988 34.0136 32.4027 34.229C32.3083 34.4428 32.2469 34.7113 32.2188 35.0344H32.266C32.3903 34.7975 32.5626 34.6201 32.7831 34.5025C33.0051 34.3848 33.2545 34.326 33.5313 34.326C33.8395 34.326 34.1138 34.3964 34.3541 34.5373C34.5944 34.6781 34.7833 34.8845 34.9208 35.1562C35.06 35.4264 35.1296 35.757 35.1296 36.1481C35.1296 36.5442 35.0567 36.8864 34.9109 37.1747C34.7667 37.4631 34.5629 37.686 34.2994 37.8434C34.0375 37.9992 33.7285 38.0771 33.3722 38.0771C33.0159 38.0771 32.7052 37.9967 32.44 37.8359C32.1765 37.6735 31.9719 37.4332 31.826 37.1151C31.6818 36.7969 31.6098 36.4041 31.6098 35.9368V35.5589C31.6098 34.6856 31.7655 34.0285 32.0771 33.5877C32.3886 33.1469 32.8543 32.9207 33.4741 32.9091C33.6746 32.9041 33.8536 32.9033 34.011 32.9066C34.1685 32.9083 34.306 32.9008 34.4237 32.8842C34.543 32.866 34.6424 32.8246 34.722 32.7599ZM33.3747 37.4531C33.5818 37.4531 33.76 37.4009 33.9091 37.2965C34.0599 37.1905 34.1759 37.0405 34.2571 36.8466C34.3383 36.6527 34.3789 36.424 34.3789 36.1605C34.3789 35.902 34.3383 35.6824 34.2571 35.5018C34.1759 35.3211 34.0599 35.1836 33.9091 35.0891C33.7583 34.993 33.5777 34.945 33.3672 34.945C33.2114 34.945 33.0722 34.9723 32.9496 35.027C32.827 35.08 32.7217 35.1587 32.6339 35.2631C32.5477 35.3675 32.4806 35.4951 32.4326 35.646C32.3862 35.7951 32.3613 35.9666 32.358 36.1605C32.358 36.5549 32.4483 36.869 32.6289 37.1026C32.8112 37.3363 33.0598 37.4531 33.3747 37.4531ZM36.2797 39.4318C36.1687 39.4318 36.0676 39.4227 35.9764 39.4045C35.8853 39.3879 35.8174 39.3697 35.7726 39.3498L35.9516 38.7408C36.0875 38.7772 36.2085 38.793 36.3145 38.788C36.4206 38.783 36.5142 38.7433 36.5954 38.6687C36.6783 38.5941 36.7512 38.4723 36.8142 38.3033L36.9061 38.0497L35.5091 34.1818H36.3046L37.2715 37.1449H37.3113L38.2783 34.1818H39.0762L37.5027 38.5096C37.4298 38.7085 37.337 38.8767 37.2243 39.0142C37.1116 39.1534 36.9774 39.2578 36.8216 39.3274C36.6658 39.397 36.4852 39.4318 36.2797 39.4318ZM38.9374 39.1012V37.3562H39.2481C39.3277 37.2833 39.3948 37.1963 39.4495 37.0952C39.5058 36.9941 39.5531 36.8739 39.5912 36.7347C39.631 36.5955 39.6641 36.4331 39.6906 36.2475C39.7171 36.0603 39.7403 35.8465 39.7602 35.6062L39.8795 34.1818H42.4747V37.3562H43.0614V39.1012H42.3355V38H39.6732V39.1012H38.9374ZM40.0436 37.3562H41.7489V34.8182H40.5457L40.4662 35.6062C40.4281 36.0072 40.38 36.3552 40.322 36.6502C40.264 36.9435 40.1712 37.1789 40.0436 37.3562ZM45.2834 38.0771C44.9072 38.0771 44.5833 37.9967 44.3115 37.8359C44.0414 37.6735 43.8325 37.4457 43.6851 37.1523C43.5392 36.8574 43.4663 36.5118 43.4663 36.1158C43.4663 35.7247 43.5392 35.38 43.6851 35.0817C43.8325 34.7834 44.038 34.5505 44.3015 34.3832C44.5667 34.2158 44.8766 34.1321 45.2312 34.1321C45.4467 34.1321 45.6555 34.1677 45.8576 34.239C46.0598 34.3103 46.2413 34.4221 46.402 34.5746C46.5628 34.727 46.6896 34.9251 46.7824 35.1687C46.8752 35.4106 46.9216 35.7048 46.9216 36.0511V36.3146H43.8864V35.7578H46.1932C46.1932 35.5623 46.1535 35.3891 46.0739 35.2383C45.9944 35.0858 45.8825 34.9657 45.7383 34.8778C45.5958 34.79 45.4284 34.7461 45.2362 34.7461C45.0274 34.7461 44.8451 34.7975 44.6893 34.9002C44.5352 35.0013 44.4159 35.1339 44.3314 35.2979C44.2485 35.4603 44.2071 35.6368 44.2071 35.8274V36.2624C44.2071 36.5176 44.2518 36.7347 44.3413 36.9137C44.4325 37.0927 44.5592 37.2294 44.7216 37.3239C44.884 37.4167 45.0738 37.4631 45.2909 37.4631C45.4317 37.4631 45.5602 37.4432 45.6762 37.4034C45.7922 37.362 45.8924 37.3007 45.977 37.2195C46.0615 37.1383 46.1261 37.038 46.1709 36.9187L46.8743 37.0455C46.818 37.2526 46.7169 37.4341 46.5711 37.5898C46.4269 37.744 46.2454 37.8641 46.0267 37.9503C45.8096 38.0348 45.5618 38.0771 45.2834 38.0771ZM47.2594 34.8232V34.1818H50.481V34.8232H49.2356V38H48.5098V34.8232H47.2594ZM52.8197 38V34.1818H54.4031C54.834 34.1818 55.1754 34.2738 55.4273 34.4577C55.6792 34.64 55.8051 34.8878 55.8051 35.201C55.8051 35.4247 55.7338 35.602 55.5913 35.733C55.4488 35.8639 55.2599 35.9517 55.0246 35.9964C55.1953 36.0163 55.3519 36.0677 55.4944 36.1506C55.6369 36.2318 55.7512 36.3411 55.8374 36.4787C55.9253 36.6162 55.9692 36.7803 55.9692 36.9709C55.9692 37.1731 55.917 37.352 55.8126 37.5078C55.7082 37.6619 55.5565 37.7829 55.3577 37.8707C55.1605 37.9569 54.9226 38 54.6442 38H52.8197ZM53.5182 37.3786H54.6442C54.8282 37.3786 54.9724 37.3346 55.0768 37.2468C55.1812 37.159 55.2334 37.0397 55.2334 36.8888C55.2334 36.7115 55.1812 36.5723 55.0768 36.4712C54.9724 36.3685 54.8282 36.3171 54.6442 36.3171H53.5182V37.3786ZM53.5182 35.7727H54.4106C54.5498 35.7727 54.6691 35.7528 54.7685 35.7131C54.8696 35.6733 54.9467 35.617 54.9997 35.544C55.0544 35.4695 55.0817 35.3816 55.0817 35.2805C55.0817 35.133 55.0212 35.0179 54.9003 34.935C54.7793 34.8522 54.6136 34.8107 54.4031 34.8107H53.5182V35.7727ZM57.7457 38.0845C57.5037 38.0845 57.285 38.0398 57.0894 37.9503C56.8939 37.8591 56.7389 37.7274 56.6246 37.555C56.5119 37.3827 56.4555 37.1714 56.4555 36.9212C56.4555 36.7057 56.497 36.5284 56.5798 36.3892C56.6627 36.25 56.7745 36.1398 56.9154 36.0586C57.0563 35.9774 57.2137 35.9161 57.3877 35.8746C57.5617 35.8332 57.739 35.8017 57.9197 35.7802C58.1484 35.7537 58.334 35.7321 58.4765 35.7156C58.619 35.6973 58.7226 35.6683 58.7872 35.6286C58.8518 35.5888 58.8842 35.5241 58.8842 35.4347V35.4173C58.8842 35.2002 58.8228 35.032 58.7002 34.9126C58.5792 34.7933 58.3986 34.7337 58.1583 34.7337C57.9081 34.7337 57.7109 34.7892 57.5667 34.9002C57.4242 35.0096 57.3256 35.1314 57.2709 35.2656L56.5724 35.1065C56.6552 34.8745 56.7762 34.6873 56.9353 34.5447C57.096 34.4006 57.2808 34.2962 57.4896 34.2315C57.6984 34.1652 57.918 34.1321 58.1484 34.1321C58.3008 34.1321 58.4624 34.1503 58.6331 34.1868C58.8054 34.2216 58.9662 34.2862 59.1153 34.3807C59.2661 34.4751 59.3896 34.6102 59.4857 34.7859C59.5818 34.9599 59.6299 35.1861 59.6299 35.4645V38H58.904V37.478H58.8742C58.8261 37.5741 58.7541 37.6686 58.6579 37.7614C58.5618 37.8542 58.4384 37.9312 58.2876 37.9925C58.1368 38.0539 57.9561 38.0845 57.7457 38.0845ZM57.9072 37.4879C58.1127 37.4879 58.2884 37.4473 58.4342 37.3661C58.5817 37.2849 58.6936 37.1789 58.7698 37.0479C58.8477 36.9154 58.8866 36.7737 58.8866 36.6229V36.1307C58.8601 36.1572 58.8087 36.1821 58.7325 36.2053C58.6579 36.2268 58.5726 36.2459 58.4765 36.2624C58.3804 36.2773 58.2867 36.2914 58.1956 36.3047C58.1044 36.3163 58.0282 36.3262 57.9669 36.3345C57.8227 36.3527 57.691 36.3834 57.5717 36.4265C57.454 36.4696 57.3595 36.5317 57.2883 36.6129C57.2187 36.6925 57.1839 36.7985 57.1839 36.9311C57.1839 37.1151 57.2518 37.2543 57.3877 37.3487C57.5236 37.4415 57.6968 37.4879 57.9072 37.4879ZM60.4699 34.1818H61.1982V37.3562H62.5182V34.1818H63.2465V37.3562H64.5665V34.1818H65.2948V38H60.4699V34.1818ZM67.2484 38.0845C67.0064 38.0845 66.7877 38.0398 66.5921 37.9503C66.3966 37.8591 66.2416 37.7274 66.1273 37.555C66.0146 37.3827 65.9583 37.1714 65.9583 36.9212C65.9583 36.7057 65.9997 36.5284 66.0826 36.3892C66.1654 36.25 66.2773 36.1398 66.4181 36.0586C66.559 35.9774 66.7164 35.9161 66.8904 35.8746C67.0644 35.8332 67.2418 35.8017 67.4224 35.7802C67.6511 35.7537 67.8367 35.7321 67.9792 35.7156C68.1217 35.6973 68.2253 35.6683 68.2899 35.6286C68.3546 35.5888 68.3869 35.5241 68.3869 35.4347V35.4173C68.3869 35.2002 68.3256 35.032 68.2029 34.9126C68.082 34.7933 67.9013 34.7337 67.661 34.7337C67.4108 34.7337 67.2136 34.7892 67.0694 34.9002C66.9269 35.0096 66.8283 35.1314 66.7736 35.2656L66.0751 35.1065C66.158 34.8745 66.2789 34.6873 66.438 34.5447C66.5988 34.4006 66.7835 34.2962 66.9924 34.2315C67.2012 34.1652 67.4207 34.1321 67.6511 34.1321C67.8036 34.1321 67.9651 34.1503 68.1358 34.1868C68.3082 34.2216 68.4689 34.2862 68.6181 34.3807C68.7689 34.4751 68.8923 34.6102 68.9884 34.7859C69.0846 34.9599 69.1326 35.1861 69.1326 35.4645V38H68.4068V37.478H68.3769C68.3289 37.5741 68.2568 37.6686 68.1607 37.7614C68.0646 37.8542 67.9411 37.9312 67.7903 37.9925C67.6395 38.0539 67.4589 38.0845 67.2484 38.0845ZM67.41 37.4879C67.6155 37.4879 67.7911 37.4473 67.937 37.3661C68.0844 37.2849 68.1963 37.1789 68.2725 37.0479C68.3504 36.9154 68.3894 36.7737 68.3894 36.6229V36.1307C68.3629 36.1572 68.3115 36.1821 68.2353 36.2053C68.1607 36.2268 68.0753 36.2459 67.9792 36.2624C67.8831 36.2773 67.7895 36.2914 67.6983 36.3047C67.6072 36.3163 67.5309 36.3262 67.4696 36.3345C67.3255 36.3527 67.1937 36.3834 67.0744 36.4265C66.9567 36.4696 66.8623 36.5317 66.791 36.6129C66.7214 36.6925 66.6866 36.7985 66.6866 36.9311C66.6866 37.1151 66.7545 37.2543 66.8904 37.3487C67.0263 37.4415 67.1995 37.4879 67.41 37.4879ZM71.6751 38V34.1818H73.2586C73.6895 34.1818 74.0308 34.2738 74.2827 34.4577C74.5346 34.64 74.6606 34.8878 74.6606 35.201C74.6606 35.4247 74.5893 35.602 74.4468 35.733C74.3043 35.8639 74.1154 35.9517 73.88 35.9964C74.0507 36.0163 74.2073 36.0677 74.3498 36.1506C74.4924 36.2318 74.6067 36.3411 74.6929 36.4787C74.7807 36.6162 74.8246 36.7803 74.8246 36.9709C74.8246 37.1731 74.7724 37.352 74.668 37.5078C74.5636 37.6619 74.412 37.7829 74.2131 37.8707C74.0159 37.9569 73.7781 38 73.4997 38H71.6751ZM72.3736 37.3786H73.4997C73.6837 37.3786 73.8278 37.3346 73.9322 37.2468C74.0366 37.159 74.0888 37.0397 74.0888 36.8888C74.0888 36.7115 74.0366 36.5723 73.9322 36.4712C73.8278 36.3685 73.6837 36.3171 73.4997 36.3171H72.3736V37.3786ZM72.3736 35.7727H73.266C73.4052 35.7727 73.5246 35.7528 73.624 35.7131C73.7251 35.6733 73.8021 35.617 73.8552 35.544C73.9099 35.4695 73.9372 35.3816 73.9372 35.2805C73.9372 35.133 73.8767 35.0179 73.7557 34.935C73.6348 34.8522 73.469 34.8107 73.2586 34.8107H72.3736V35.7727ZM76.6011 38.0845C76.3592 38.0845 76.1404 38.0398 75.9449 37.9503C75.7493 37.8591 75.5944 37.7274 75.48 37.555C75.3673 37.3827 75.311 37.1714 75.311 36.9212C75.311 36.7057 75.3524 36.5284 75.4353 36.3892C75.5181 36.25 75.63 36.1398 75.7709 36.0586C75.9117 35.9774 76.0692 35.9161 76.2432 35.8746C76.4172 35.8332 76.5945 35.8017 76.7751 35.7802C77.0038 35.7537 77.1894 35.7321 77.3319 35.7156C77.4745 35.6973 77.578 35.6683 77.6427 35.6286C77.7073 35.5888 77.7396 35.5241 77.7396 35.4347V35.4173C77.7396 35.2002 77.6783 35.032 77.5557 34.9126C77.4347 34.7933 77.2541 34.7337 77.0138 34.7337C76.7635 34.7337 76.5663 34.7892 76.4221 34.9002C76.2796 35.0096 76.181 35.1314 76.1263 35.2656L75.4278 35.1065C75.5107 34.8745 75.6317 34.6873 75.7908 34.5447C75.9515 34.4006 76.1363 34.2962 76.3451 34.2315C76.5539 34.1652 76.7735 34.1321 77.0038 34.1321C77.1563 34.1321 77.3179 34.1503 77.4886 34.1868C77.6609 34.2216 77.8217 34.2862 77.9708 34.3807C78.1216 34.4751 78.2451 34.6102 78.3412 34.7859C78.4373 34.9599 78.4854 35.1861 78.4854 35.4645V38H77.7595V37.478H77.7297C77.6816 37.5741 77.6095 37.6686 77.5134 37.7614C77.4173 37.8542 77.2938 37.9312 77.143 37.9925C76.9922 38.0539 76.8116 38.0845 76.6011 38.0845ZM76.7627 37.4879C76.9682 37.4879 77.1439 37.4473 77.2897 37.3661C77.4372 37.2849 77.549 37.1789 77.6253 37.0479C77.7032 36.9154 77.7421 36.7737 77.7421 36.6229V36.1307C77.7156 36.1572 77.6642 36.1821 77.588 36.2053C77.5134 36.2268 77.4281 36.2459 77.3319 36.2624C77.2358 36.2773 77.1422 36.2914 77.0511 36.3047C76.9599 36.3163 76.8837 36.3262 76.8224 36.3345C76.6782 36.3527 76.5464 36.3834 76.4271 36.4265C76.3095 36.4696 76.215 36.5317 76.1437 36.6129C76.0741 36.6925 76.0393 36.7985 76.0393 36.9311C76.0393 37.1151 76.1073 37.2543 76.2432 37.3487C76.3791 37.4415 76.5522 37.4879 76.7627 37.4879ZM79.0245 38L79.0221 37.3562H79.1588C79.2648 37.3562 79.3535 37.3338 79.4248 37.2891C79.4977 37.2427 79.5573 37.1648 79.6037 37.0554C79.6501 36.946 79.6858 36.7952 79.7106 36.603C79.7355 36.4091 79.7537 36.1655 79.7653 35.8722L79.8324 34.1818H82.4972V38H81.7689V34.8232H80.521L80.4613 36.1207C80.4464 36.4356 80.4141 36.7107 80.3644 36.946C80.3163 37.1813 80.2459 37.3777 80.1531 37.5352C80.0603 37.6909 79.941 37.8078 79.7951 37.8857C79.6493 37.9619 79.472 38 79.2632 38H79.0245ZM84.984 38.0771C84.6078 38.0771 84.2839 37.9967 84.0121 37.8359C83.7419 37.6735 83.5331 37.4457 83.3857 37.1523C83.2398 36.8574 83.1669 36.5118 83.1669 36.1158C83.1669 35.7247 83.2398 35.38 83.3857 35.0817C83.5331 34.7834 83.7386 34.5505 84.0021 34.3832C84.2673 34.2158 84.5772 34.1321 84.9318 34.1321C85.1473 34.1321 85.3561 34.1677 85.5582 34.239C85.7604 34.3103 85.9419 34.4221 86.1026 34.5746C86.2634 34.727 86.3901 34.9251 86.483 35.1687C86.5758 35.4106 86.6222 35.7048 86.6222 36.0511V36.3146H83.587V35.7578H85.8938C85.8938 35.5623 85.854 35.3891 85.7745 35.2383C85.695 35.0858 85.5831 34.9657 85.4389 34.8778C85.2964 34.79 85.129 34.7461 84.9368 34.7461C84.728 34.7461 84.5457 34.7975 84.3899 34.9002C84.2358 35.0013 84.1165 35.1339 84.032 35.2979C83.9491 35.4603 83.9077 35.6368 83.9077 35.8274V36.2624C83.9077 36.5176 83.9524 36.7347 84.0419 36.9137C84.133 37.0927 84.2598 37.2294 84.4222 37.3239C84.5846 37.4167 84.7744 37.4631 84.9915 37.4631C85.1323 37.4631 85.2608 37.4432 85.3768 37.4034C85.4928 37.362 85.593 37.3007 85.6776 37.2195C85.7621 37.1383 85.8267 37.038 85.8714 36.9187L86.5749 37.0455C86.5186 37.2526 86.4175 37.4341 86.2717 37.5898C86.1275 37.744 85.946 37.8641 85.7273 37.9503C85.5102 38.0348 85.2624 38.0771 84.984 38.0771ZM89.8845 35.7702V36.4141H87.8163V35.7702H89.8845ZM88.0251 34.1818V38H87.2968V34.1818H88.0251ZM90.4041 34.1818V38H89.6782V34.1818H90.4041ZM90.7748 34.8232V34.1818H93.9964V34.8232H92.751V38H92.0252V34.8232H90.7748ZM95.3609 36.9585L97.0438 34.1818H97.8442V38H97.1159V35.2209L95.4404 38H94.6325V34.1818H95.3609V36.9585ZM101.281 35.7702V36.4141H99.213V35.7702H101.281ZM99.4218 34.1818V38H98.6935V34.1818H99.4218ZM101.801 34.1818V38H101.075V34.1818H101.801ZM102.645 38V34.1818H103.388V35.7827H103.746L105.007 34.1818H105.926L104.447 36.0387L105.944 38H105.021L103.871 36.4737H103.388V38H102.645ZM107.482 38.0845C107.24 38.0845 107.021 38.0398 106.826 37.9503C106.63 37.8591 106.475 37.7274 106.361 37.555C106.248 37.3827 106.192 37.1714 106.192 36.9212C106.192 36.7057 106.233 36.5284 106.316 36.3892C106.399 36.25 106.511 36.1398 106.652 36.0586C106.793 35.9774 106.95 35.9161 107.124 35.8746C107.298 35.8332 107.476 35.8017 107.656 35.7802C107.885 35.7537 108.07 35.7321 108.213 35.7156C108.356 35.6973 108.459 35.6683 108.524 35.6286C108.588 35.5888 108.621 35.5241 108.621 35.4347V35.4173C108.621 35.2002 108.559 35.032 108.437 34.9126C108.316 34.7933 108.135 34.7337 107.895 34.7337C107.645 34.7337 107.447 34.7892 107.303 34.9002C107.161 35.0096 107.062 35.1314 107.007 35.2656L106.309 35.1065C106.392 34.8745 106.513 34.6873 106.672 34.5447C106.833 34.4006 107.017 34.2962 107.226 34.2315C107.435 34.1652 107.655 34.1321 107.885 34.1321C108.037 34.1321 108.199 34.1503 108.37 34.1868C108.542 34.2216 108.703 34.2862 108.852 34.3807C109.003 34.4751 109.126 34.6102 109.222 34.7859C109.318 34.9599 109.366 35.1861 109.366 35.4645V38H108.641V37.478H108.611C108.563 37.5741 108.491 37.6686 108.394 37.7614C108.298 37.8542 108.175 37.9312 108.024 37.9925C107.873 38.0539 107.693 38.0845 107.482 38.0845ZM107.644 37.4879C107.849 37.4879 108.025 37.4473 108.171 37.3661C108.318 37.2849 108.43 37.1789 108.506 37.0479C108.584 36.9154 108.623 36.7737 108.623 36.6229V36.1307C108.597 36.1572 108.545 36.1821 108.469 36.2053C108.394 36.2268 108.309 36.2459 108.213 36.2624C108.117 36.2773 108.023 36.2914 107.932 36.3047C107.841 36.3163 107.765 36.3262 107.703 36.3345C107.559 36.3527 107.427 36.3834 107.308 36.4265C107.191 36.4696 107.096 36.5317 107.025 36.6129C106.955 36.6925 106.92 36.7985 106.92 36.9311C106.92 37.1151 106.988 37.2543 107.124 37.3487C107.26 37.4415 107.433 37.4879 107.644 37.4879Z" fill="#797979"/>
</svg>
