<svg width="24" height="21" viewBox="0 0 24 21" fill="none" xmlns="http://www.w3.org/2000/svg">
<path d="M11.6242 3.69636L12 4.12457L12.3758 3.69636C13.7372 2.14512 15.2744 1.38 16.9737 1.38C20.3019 1.38 23 4.07808 23 7.40632C23 9.12234 22.6639 10.3679 21.6213 11.7599C20.5498 13.1904 18.729 14.7809 15.6998 17.1369L12.9209 19.2982C12.3792 19.7195 11.6208 19.7195 11.0791 19.2982L8.3002 17.1369C5.27104 14.7809 3.45015 13.1904 2.37871 11.7599C1.33609 10.3679 1 9.12234 1 7.40632C1 4.07808 3.69807 1.38 7.02632 1.38C8.72563 1.38 10.2628 2.14512 11.6242 3.69636Z" stroke="#FF3347"/>
</svg>
