<svg width="35" height="49" viewBox="0 0 35 49" fill="none" xmlns="http://www.w3.org/2000/svg">
<path d="M9.02632 25.88C5.42193 25.88 2.5 28.8019 2.5 32.4063C2.5 36.0191 3.94498 37.8274 9.99323 42.5316L12.7721 44.6929C13.4943 45.2547 14.5057 45.2547 15.2279 44.6929L18.0068 42.5316C24.055 37.8274 25.5 36.0191 25.5 32.4063C25.5 28.8019 22.5781 25.88 18.9737 25.88C17.1022 25.88 15.4359 26.7304 14 28.3665C12.5641 26.7304 10.8978 25.88 9.02632 25.88Z" fill="#FF3347"/>
<path d="M22.125 12.3114C19.6792 12.3114 17.6964 14.2941 17.6964 16.74C17.6964 19.1915 18.6769 20.4185 22.7811 23.6107L24.6668 25.0773C25.1569 25.4585 25.8431 25.4585 26.3332 25.0773L28.2189 23.6107C32.323 20.4185 33.3036 19.1915 33.3036 16.74C33.3036 14.2941 31.3208 12.3114 28.875 12.3114C27.605 12.3114 26.4744 12.8884 25.5 13.9987C24.5256 12.8884 23.3949 12.3114 22.125 12.3114Z" fill="#FF3347"/>
<path d="M11.8684 2.09143C10.3237 2.09143 9.07141 3.34369 9.07141 4.88842C9.07141 6.43676 9.69069 7.21173 12.2828 9.22781L13.4737 10.1541C13.7833 10.3949 14.2167 10.3949 14.5262 10.1541L15.7172 9.22781C18.3093 7.21173 18.9286 6.43676 18.9286 4.88842C18.9286 3.34369 17.6763 2.09143 16.1316 2.09143C15.3295 2.09143 14.6154 2.45587 14 3.15709C13.3846 2.45587 12.6705 2.09143 11.8684 2.09143Z" fill="#FF3347"/>
</svg>
