<svg width="28" height="28" viewBox="0 0 28 28" fill="none" xmlns="http://www.w3.org/2000/svg">
<g clip-path="url(#clip0_49_4688)">
<path d="M13.0788 3C10.4696 3 8.34702 4.99254 8.03857 7.52832C7.97188 8.07656 8.36226 8.57506 8.9105 8.64175C9.45874 8.70844 9.95724 8.31807 10.0239 7.76982C10.2159 6.19146 11.5268 5 13.0788 5C13.9463 5 14.88 5.56426 15.8458 6.94986C16.2842 7.57882 17.2156 7.57882 17.654 6.94986C18.6198 5.56426 19.5535 5 20.4209 5C22.101 5 23.4999 6.39802 23.4999 8.16857C23.4999 8.90198 23.3797 9.46529 23.122 9.99707C22.8568 10.5443 22.4176 11.1172 21.6911 11.8272C21.2962 12.2133 21.289 12.8464 21.675 13.2414C22.061 13.6363 22.6942 13.6435 23.0891 13.2575C23.901 12.4639 24.5167 11.7053 24.9218 10.8692C25.3344 10.0177 25.4999 9.14592 25.4999 8.16857C25.4999 5.33465 23.2463 3 20.4209 3C18.9658 3 17.7478 3.75883 16.7499 4.87076C15.7519 3.75883 14.5339 3 13.0788 3Z" fill="#FF3347"/>
<path fill-rule="evenodd" clip-rule="evenodd" d="M7.57895 10.5C4.75354 10.5 2.5 12.8347 2.5 15.6686C2.5 17.1777 2.89717 18.3711 3.85447 19.5954C4.75749 20.7503 6.1656 21.9373 8.12353 23.4936L10.1746 25.1239C10.8054 25.6254 11.6946 25.6254 12.3254 25.1239L14.3765 23.4936C16.3344 21.9373 17.7425 20.7503 18.6455 19.5954C19.6028 18.3711 20 17.1777 20 15.6686C20 12.8347 17.7465 10.5 14.9211 10.5C13.454 10.5 12.2367 11.3133 11.25 12.4317C10.2633 11.3133 9.04596 10.5 7.57895 10.5ZM4.5 15.6686C4.5 13.898 5.89887 12.5 7.57895 12.5C8.42484 12.5 9.35974 13.1019 10.3453 14.5192C10.7836 15.1495 11.7165 15.1494 12.1547 14.5192C13.1403 13.1019 14.0752 12.5 14.9211 12.5C16.6011 12.5 18 13.898 18 15.6686C18 16.7373 17.7485 17.4958 17.07 18.3635C16.3372 19.3006 15.1225 20.3458 13.132 21.9279L11.25 23.4239L9.36801 21.9279C7.37754 20.3458 6.16277 19.3006 5.43 18.3635C4.75152 17.4958 4.5 16.7373 4.5 15.6686Z" fill="#FF3347"/>
</g>
<defs>
<clipPath id="clip0_49_4688">
<rect width="28" height="28" fill="white"/>
</clipPath>
</defs>
</svg>
