<svg width="24" height="21" viewBox="0 0 24 21" fill="none" xmlns="http://www.w3.org/2000/svg">
<path d="M11.2484 4.02616L12 4.88259L12.7516 4.02616C14.0384 2.55987 15.4466 1.88 16.9737 1.88C20.0258 1.88 22.5 4.35422 22.5 7.40632C22.5 9.03197 22.1891 10.1678 21.2211 11.4602C20.1955 12.8295 18.427 14.3823 15.3928 16.7422L12.6139 18.9036C12.2528 19.1844 11.7472 19.1844 11.3861 18.9036L8.60717 16.7422C5.57297 14.3823 3.80451 12.8295 2.7789 11.4602C1.81094 10.1678 1.5 9.03197 1.5 7.40632C1.5 4.35422 3.97422 1.88 7.02632 1.88C8.55344 1.88 9.96157 2.55987 11.2484 4.02616Z" stroke="#FF3347" stroke-width="2"/>
</svg>
