<svg width="28" height="28" viewBox="0 0 28 28" fill="none" xmlns="http://www.w3.org/2000/svg">
<path d="M22.75 19.5C23.4404 19.5 24 20.0596 24 20.75C24 21.4404 23.4404 22 22.75 22H5.25C4.55964 22 4 21.4404 4 20.75C4 20.0596 4.55964 19.5 5.25 19.5H22.75ZM22.75 13C23.4404 13 24 13.5596 24 14.25C24 14.9404 23.4404 15.5 22.75 15.5H5.25C4.55964 15.5 4 14.9404 4 14.25C4 13.5596 4.55964 13 5.25 13H22.75ZM22.75 6.5C23.4404 6.5 24 7.05964 24 7.75C24 8.44036 23.4404 9 22.75 9H5.25C4.55964 9 4 8.44036 4 7.75C4 7.05964 4.55964 6.5 5.25 6.5H22.75Z" fill="#99A2AD"/>
</svg>
